<?xml version="1.0" standalone="no"?><!DOCTYPE svg PUBLIC "-//W3C//DTD SVG 1.1//EN" "http://www.w3.org/Graphics/SVG/1.1/DTD/svg11.dtd"><svg t="1642389372076" class="icon" viewBox="0 0 1024 1024" version="1.1" xmlns="http://www.w3.org/2000/svg" p-id="6510" xmlns:xlink="http://www.w3.org/1999/xlink" width="200" height="200"><defs><style type="text/css"></style></defs><path d="M512 192c176.448 0 320 143.552 320 320s-143.552 320-320 320S192 688.448 192 512 335.552 192 512 192m0-64C299.925333 128 128 299.925333 128 512s171.925333 384 384 384 384-171.925333 384-384S724.074667 128 512 128z" fill="#A8A8B4" p-id="6511"></path><path d="M512 256c-23.466667 0-42.666667 19.2-42.666667 42.666667v298.666666c0 23.466667 19.2 42.666667 42.666667 42.666667s42.666667-19.2 42.666667-42.666667V298.666667c0-23.466667-19.2-42.666667-42.666667-42.666667zM512 682.666667c-23.466667 0-42.666667 19.2-42.666667 42.666666s19.2 42.666667 42.666667 42.666667 42.666667-19.2 42.666667-42.666667-19.2-42.666667-42.666667-42.666666z" fill="#A8A8B4" p-id="6512"></path></svg>